<svg xmlns="http://www.w3.org/2000/svg" xmlns:xlink="http://www.w3.org/1999/xlink" version="1.1" id="Capa_1" x="0px" y="0px" viewBox="0 0 511.999 511.999" style="enable-background:new 0 0 511.999 511.999;" xml:space="preserve" width="512" height="512" class=""><g><g>
	<path style="fill:#FFFFFF" d="M81.485,257.357c2.273,36.918,11.681,77.586,14.924,97.298   c15.717,95.453,28.121,89.795,79.044,124.337c53.083,30.648,107.174,30.705,160.364-0.008   c50.924-34.536,63.328-28.876,79.041-124.329c3.246-19.73,12.666-60.447,14.931-97.388h-0.272   c-55.566-20.996-114.48-31.757-173.881-31.757c-59.489,0-118.484,10.789-174.121,31.846   C81.504,257.357,81.496,257.357,81.485,257.357z" data-original="#FCC8A4" class="" data-old_color="#ffffff"></path>
	<g>
		<path style="fill:#F15D27" d="M81.515,257.357c55.637-21.057,114.632-31.846,174.121-31.846    c59.401,0,118.314,10.761,173.881,31.757h0.272c30.679,0,57.7-24.789,27.946-46.601c-20.609-15.108-68.459-28.791-161.196-31.818    c-12.453-0.407-25.718-0.62-39.837-0.62c-14.92,0-28.895,0.24-41.973,0.693c-93.346,3.235-141.044,17.345-161.193,32.724    c-28.297,21.598-2.277,45.697,27.949,45.711L81.515,257.357L81.515,257.357z" data-original="#FFA14D" class="" data-old_color="#f15d27"></path>
		<path style="fill:#F15D27" d="M214.729,64.527v114.396c13.078-0.453,27.053-0.693,41.973-0.693    c14.119,0,27.384,0.213,39.837,0.62V24.512V10h-81.81v14.512L214.729,64.527L214.729,64.527z" data-original="#FFA14D" class="" data-old_color="#f15d27"></path>
	</g>
	<g>
		<path style="fill:#F26B3A" d="M214.729,178.923V64.527V24.512C144.492,26.048,86.041,92.475,81.442,159.223h-7.424    c-11.267,0-20.482,9.218-20.482,20.485v31.938C73.686,196.268,121.384,182.158,214.729,178.923z" data-original="#FFD071" class="" data-old_color="#FD6C35"></path>
		<path style="fill:#F26B3A" d="M296.539,24.512V178.85c92.737,3.027,140.587,16.71,161.196,31.818v-30.959    c0-11.267-9.219-20.485-20.485-20.485h-7.425C425.23,92.475,366.776,26.048,296.539,24.512z" data-original="#FFD071" class="" data-old_color="#FD6C35"></path>
	</g>
	<g>
		<path style="fill:#4C4C4C" d="M209.837,437.11c44.704-4.378,53.745-31.877,40.686-50.627    c-28.426-30.651-65.727,34.664-103.978,15.625C146.545,402.108,165.13,441.484,209.837,437.11z" data-original="#8E6A5C" class="active-path" data-old_color="#000000"></path>
		<path style="fill:#4C4C4C" d="M261.48,386.483c-13.06,18.75-4.019,46.249,40.687,50.627    c44.706,4.374,63.291-35.002,63.291-35.002C327.207,421.147,289.909,355.832,261.48,386.483z" data-original="#8E6A5C" class="active-path" data-old_color="#000000"></path>
	</g>
</g><g>
	<path style="fill:#4C4C4C" d="M128.647,130.122c1.488,0.785,3.084,1.157,4.656,1.157c3.591,0,7.063-1.94,8.854-5.337l0.217-0.409   c2.586-4.88,0.728-10.932-4.152-13.519c-4.881-2.589-10.934-0.728-13.519,4.152l-0.235,0.445   C121.892,121.497,123.763,127.546,128.647,130.122z" data-original="#000001" class="" data-old_color="#4D4D4D"></path>
	<path style="fill:#4C4C4C" d="M467.735,205.866v-26.158c0-16.275-12.821-29.612-28.893-30.444   c-4.404-31.946-20.065-63.845-43.807-88.751c-25.018-26.245-56.126-42.126-88.497-45.395V10c0-5.523-4.478-10-10-10h-81.81   c-5.523,0-10,4.477-10,10v5.119c-32.371,3.268-63.478,19.15-88.496,45.395C92.49,85.42,76.831,117.319,72.425,149.265   c-16.071,0.832-28.891,14.169-28.891,30.444v27.257c-9.446,8.583-12.156,17.207-12.156,24.247   c0,17.627,17.598,32.339,40.789,35.506c2.25,25.618,7.258,51.781,11.027,71.434c1.37,7.145,2.554,13.315,3.346,18.128   c7.074,42.97,13.564,65.948,23.146,81.957c10.127,16.92,23.307,25.304,41.547,36.907c5.512,3.506,11.758,7.479,18.604,12.124   l0.614,0.384c27.97,16.148,56.614,24.339,85.14,24.346c0.012,0,0.021,0,0.033,0c28.541,0,57.205-8.195,85.191-24.354l0.613-0.384   c6.847-4.644,13.092-8.616,18.603-12.121c18.24-11.602,31.42-19.983,41.547-36.903c9.582-16.008,16.07-38.987,23.145-81.957   c0.791-4.809,1.974-10.974,3.343-18.113c3.774-19.681,8.793-45.887,11.039-71.54c8.945-1.234,17.405-4.225,24.462-8.726   c10.838-6.911,17.054-16.819,17.054-27.183C480.623,223.507,477.788,214.634,467.735,205.866z M419.849,159.91   c0.361,5.244,4.721,9.313,9.977,9.313h7.425c5.782,0,10.485,4.704,10.485,10.485v13.789c-5.439-2.495-11.711-4.905-18.975-7.177   c-29.471-9.218-70.463-14.943-122.222-17.105V35.234C369.269,42.676,416.052,104.745,419.849,159.91z M286.539,20v148.569   c-9.618-0.223-19.557-0.339-29.837-0.339c-11.041,0-21.691,0.133-31.973,0.391V20H286.539z M63.536,179.708   c0-5.782,4.702-10.485,10.482-10.485h7.424c5.257,0,9.615-4.069,9.977-9.313c3.801-55.165,50.584-117.233,113.31-124.676v20.077   c-22.812,3.151-44.676,15.5-62.417,35.457c-3.669,4.128-3.298,10.448,0.829,14.118c1.906,1.694,4.277,2.526,6.641,2.526   c2.757,0,5.502-1.133,7.477-3.356c13.796-15.519,30.353-25.385,47.47-28.488v93.737c-51.202,2.246-91.842,8.014-121.191,17.233   c-7.717,2.424-14.325,5-20.002,7.667C63.536,194.205,63.536,179.708,63.536,179.708z M404.991,353.032   c-12.836,77.977-21.914,83.75-55.691,105.232c-5.546,3.527-11.822,7.519-18.791,12.238   c-49.686,28.567-100.067,28.571-149.747,0.008c-6.97-4.72-13.245-8.712-18.791-12.24c-33.777-21.486-42.855-27.261-55.694-105.237   c-0.834-5.072-2.041-11.363-3.438-18.647c-3.727-19.431-8.693-45.379-10.816-70.245c52.598-18.997,107.601-28.629,163.613-28.629   c56.004,0,111.009,9.633,163.611,28.63c-2.124,24.872-7.093,50.825-10.82,70.258C407.03,341.677,405.825,347.963,404.991,353.032z    M431.273,247.245c-56.365-21.057-115.449-31.734-175.637-31.734c-60.275,0-119.43,10.703-175.857,31.814   c-15.878-0.583-28.399-9.056-28.399-16.113c0-2.984,2.3-7.157,8.368-11.739c0.024-0.019,0.05-0.036,0.073-0.055   c16.131-12.126,58.694-27.089,154.895-30.48c0.004,0,0.009,0.001,0.014,0.001c0.024,0,0.048-0.003,0.072-0.004   c12.976-0.456,26.906-0.706,41.9-0.706c122.703,0,175.112,16.501,194.333,29.96c0.503,0.456,1.052,0.86,1.64,1.207   c5.75,4.418,7.948,8.433,7.948,11.322C460.623,237.996,447.659,246.742,431.273,247.245z" data-original="#000001" class="" data-old_color="#4D4D4D"></path>
	<path style="fill:#4C4C4C" d="M327.246,339.969c8.263,0,15.001-6.738,15.001-15c0-8.26-6.738-14.999-15.001-14.999   s-15.001,6.738-15.001,14.999C312.245,333.23,318.983,339.969,327.246,339.969z" data-original="#000001" class="" data-old_color="#4D4D4D"></path>
	<path style="fill:#4C4C4C" d="M184.024,339.969c8.263,0,14.999-6.738,14.999-15c0-8.26-6.736-14.999-14.999-14.999   c-8.262,0-15,6.738-15,14.999C169.024,333.23,175.763,339.969,184.024,339.969z" data-original="#000001" class="" data-old_color="#4D4D4D"></path>
	<path style="fill:#4C4C4C" d="M360.636,393.156c-3.376,1.68-6.824,2.497-10.541,2.497c-10.651,0-22.467-6.786-33.893-13.349   c-12.105-6.953-24.622-14.142-37.441-14.142c-8.673,0-16.439,3.251-23.125,9.651c-6.688-6.399-14.453-9.651-23.127-9.651   c-12.82,0-25.338,7.189-37.443,14.143c-11.426,6.562-23.24,13.348-33.892,13.348c-3.716,0-7.163-0.816-10.539-2.497   c-3.813-1.898-8.409-1.172-11.454,1.808c-3.043,2.98-3.863,7.562-2.045,11.414c0.792,1.677,19.914,41.067,65.49,41.072   c0.002,0,0.005,0,0.008,0c2.559,0,5.186-0.13,7.809-0.387c24.34-2.383,37.791-10.88,45.191-18.977   c7.401,8.097,20.854,16.593,45.193,18.978c2.622,0.256,5.252,0.387,7.814,0.387c45.578,0,64.701-39.395,65.493-41.072   c1.818-3.852,0.997-8.433-2.046-11.414C369.046,391.984,364.448,391.257,360.636,393.156z M244.167,409.751   c-4.273,9.26-17.276,15.604-35.672,17.406c-1.979,0.194-3.951,0.292-5.861,0.292c-0.002,0-0.004,0-0.006,0   c-14.905-0.001-25.953-5.91-33.618-12.452c13.001-2.131,25.116-9.089,36.017-15.35c10.283-5.906,19.998-11.485,27.482-11.485   c2.492,0,5.836,0.538,9.83,4.612C245.944,398.293,246.616,404.445,244.167,409.751z M308.642,427.45   c-1.916,0-3.89-0.098-5.867-0.292c-18.396-1.802-31.398-8.147-35.673-17.407c-2.448-5.307-1.776-11.459,1.83-16.977   c3.994-4.074,7.338-4.612,9.829-4.612c7.484,0,17.197,5.579,27.48,11.485c10.9,6.261,23.016,13.219,36.018,15.351   C334.592,421.543,323.545,427.45,308.642,427.45z" data-original="#000001" class="" data-old_color="#4D4D4D"></path>
</g></g> </svg>